<mxfile host="65bd71144e">
    <diagram id="7jOt9LcFwn2nwYVHl3-t" name="Page-1">
        <mxGraphModel dx="613" dy="466" grid="1" gridSize="10" guides="1" tooltips="1" connect="1" arrows="1" fold="1" page="1" pageScale="1" pageWidth="850" pageHeight="1100" background="#212121" math="0" shadow="0">
            <root>
                <mxCell id="0"/>
                <mxCell id="1" parent="0"/>
                <mxCell id="11" value="" style="rounded=1;whiteSpace=wrap;html=1;fillColor=none;strokeColor=#E6E6E6;" vertex="1" parent="1">
                    <mxGeometry x="10" y="10" width="260" height="240" as="geometry"/>
                </mxCell>
                <mxCell id="12" value="" style="rounded=1;whiteSpace=wrap;html=1;fillColor=none;strokeColor=#E6E6E6;" vertex="1" parent="1">
                    <mxGeometry x="30" y="80" width="220" height="150" as="geometry"/>
                </mxCell>
                <mxCell id="13" value="&lt;font style=&quot;font-size: 21px&quot; color=&quot;#ffffff&quot;&gt;Vercel&lt;/font&gt;" style="text;html=1;align=center;verticalAlign=middle;resizable=0;points=[];autosize=1;strokeColor=none;fillColor=none;strokeWidth=5;" vertex="1" parent="1">
                    <mxGeometry x="105" y="40" width="70" height="20" as="geometry"/>
                </mxCell>
                <mxCell id="14" value="&lt;font style=&quot;font-size: 21px&quot; color=&quot;#ffffff&quot;&gt;Next.js&lt;/font&gt;" style="text;html=1;align=center;verticalAlign=middle;resizable=0;points=[];autosize=1;strokeColor=none;fillColor=none;strokeWidth=5;" vertex="1" parent="1">
                    <mxGeometry x="100" y="100" width="80" height="20" as="geometry"/>
                </mxCell>
                <mxCell id="19" style="edgeStyle=none;html=1;exitX=1;exitY=0.5;exitDx=0;exitDy=0;entryX=0;entryY=0.5;entryDx=0;entryDy=0;fontSize=21;startArrow=classic;startFill=1;strokeColor=#E6E6E6;" edge="1" parent="1" source="15" target="16">
                    <mxGeometry relative="1" as="geometry"/>
                </mxCell>
                <mxCell id="29" style="edgeStyle=none;html=1;exitX=0.25;exitY=1;exitDx=0;exitDy=0;entryX=0;entryY=0;entryDx=0;entryDy=0;fontSize=21;startArrow=classic;startFill=1;strokeColor=#E6E6E6;" edge="1" parent="1" source="15" target="17">
                    <mxGeometry relative="1" as="geometry"/>
                </mxCell>
                <mxCell id="15" value="&lt;font color=&quot;#ffffff&quot;&gt;UI&lt;/font&gt;" style="rounded=1;whiteSpace=wrap;html=1;fontSize=21;strokeWidth=1;fillColor=none;strokeColor=#E6E6E6;" vertex="1" parent="1">
                    <mxGeometry x="55" y="150" width="50" height="50" as="geometry"/>
                </mxCell>
                <mxCell id="20" style="edgeStyle=none;html=1;exitX=1;exitY=0.5;exitDx=0;exitDy=0;entryX=0;entryY=0.5;entryDx=0;entryDy=0;fontSize=21;startArrow=classic;startFill=1;strokeColor=#E6E6E6;" edge="1" parent="1" source="16" target="18">
                    <mxGeometry relative="1" as="geometry"/>
                </mxCell>
                <mxCell id="28" style="edgeStyle=none;html=1;exitX=0.75;exitY=1;exitDx=0;exitDy=0;entryX=1;entryY=0;entryDx=0;entryDy=0;fontSize=21;startArrow=classic;startFill=1;strokeColor=#E6E6E6;" edge="1" parent="1" source="16" target="17">
                    <mxGeometry relative="1" as="geometry"/>
                </mxCell>
                <mxCell id="16" value="&lt;font color=&quot;#ffffff&quot;&gt;API&lt;/font&gt;" style="rounded=1;whiteSpace=wrap;html=1;fontSize=21;strokeWidth=1;fillColor=none;strokeColor=#E6E6E6;" vertex="1" parent="1">
                    <mxGeometry x="175" y="150" width="50" height="50" as="geometry"/>
                </mxCell>
                <mxCell id="17" value="&lt;font color=&quot;#ffffff&quot;&gt;Firebase Auth&lt;/font&gt;" style="ellipse;whiteSpace=wrap;html=1;fontSize=21;strokeWidth=1;fillColor=none;strokeColor=#E6E6E6;" vertex="1" parent="1">
                    <mxGeometry x="48.75" y="300" width="182.5" height="70" as="geometry"/>
                </mxCell>
                <mxCell id="18" value="&lt;font color=&quot;#ffffff&quot;&gt;Firebase Database&lt;/font&gt;" style="rounded=1;whiteSpace=wrap;html=1;fontSize=21;strokeWidth=1;fillColor=none;strokeColor=#E6E6E6;" vertex="1" parent="1">
                    <mxGeometry x="360" y="135" width="205" height="80" as="geometry"/>
                </mxCell>
            </root>
        </mxGraphModel>
    </diagram>
</mxfile>